<mxfile host="app.diagrams.net" agent="Mozilla/5.0 (X11; Linux x86_64) AppleWebKit/537.36 (KHTML, like Gecko) Chrome/135.0.0.0 Safari/537.36" version="26.2.14">
  <diagram name="Page-1" id="EiGyMkE7RV2C4kf5RIah">
    <mxGraphModel dx="688" dy="385" grid="1" gridSize="10" guides="1" tooltips="1" connect="1" arrows="1" fold="1" page="1" pageScale="1" pageWidth="827" pageHeight="1169" math="0" shadow="0">
      <root>
        <mxCell id="0" />
        <mxCell id="1" parent="0" />
        <mxCell id="J83IUPI5iL-tQ66jwVP--1" value="User" style="shape=umlActor;verticalLabelPosition=bottom;verticalAlign=top;html=1;outlineConnect=0;" vertex="1" parent="1">
          <mxGeometry x="90" y="100" width="30" height="60" as="geometry" />
        </mxCell>
        <mxCell id="J83IUPI5iL-tQ66jwVP--2" value="Ticketing System" style="rounded=0;whiteSpace=wrap;html=1;" vertex="1" parent="1">
          <mxGeometry x="240" y="100" width="120" height="60" as="geometry" />
        </mxCell>
        <mxCell id="J83IUPI5iL-tQ66jwVP--3" value="Database" style="rounded=0;whiteSpace=wrap;html=1;" vertex="1" parent="1">
          <mxGeometry x="480" y="100" width="120" height="60" as="geometry" />
        </mxCell>
        <mxCell id="J83IUPI5iL-tQ66jwVP--4" value="" style="endArrow=none;dashed=1;html=1;rounded=0;" edge="1" parent="1" target="J83IUPI5iL-tQ66jwVP--2">
          <mxGeometry width="50" height="50" relative="1" as="geometry">
            <mxPoint x="300" y="430" as="sourcePoint" />
            <mxPoint x="400" y="210" as="targetPoint" />
          </mxGeometry>
        </mxCell>
        <mxCell id="J83IUPI5iL-tQ66jwVP--5" value="" style="endArrow=none;dashed=1;html=1;rounded=0;" edge="1" parent="1" target="J83IUPI5iL-tQ66jwVP--3">
          <mxGeometry width="50" height="50" relative="1" as="geometry">
            <mxPoint x="540" y="430" as="sourcePoint" />
            <mxPoint x="400" y="210" as="targetPoint" />
          </mxGeometry>
        </mxCell>
        <mxCell id="J83IUPI5iL-tQ66jwVP--6" value="" style="endArrow=none;dashed=1;html=1;rounded=0;" edge="1" parent="1" target="J83IUPI5iL-tQ66jwVP--1">
          <mxGeometry width="50" height="50" relative="1" as="geometry">
            <mxPoint x="105" y="420" as="sourcePoint" />
            <mxPoint x="390" y="190" as="targetPoint" />
          </mxGeometry>
        </mxCell>
        <mxCell id="J83IUPI5iL-tQ66jwVP--7" value="" style="endArrow=classic;html=1;rounded=0;" edge="1" parent="1">
          <mxGeometry width="50" height="50" relative="1" as="geometry">
            <mxPoint x="120" y="240" as="sourcePoint" />
            <mxPoint x="290" y="240" as="targetPoint" />
          </mxGeometry>
        </mxCell>
        <mxCell id="J83IUPI5iL-tQ66jwVP--8" value="View Ticket Receipts" style="edgeLabel;html=1;align=center;verticalAlign=middle;resizable=0;points=[];" vertex="1" connectable="0" parent="J83IUPI5iL-tQ66jwVP--7">
          <mxGeometry x="-0.0706" y="-1" relative="1" as="geometry">
            <mxPoint as="offset" />
          </mxGeometry>
        </mxCell>
        <mxCell id="J83IUPI5iL-tQ66jwVP--9" value="" style="endArrow=classic;html=1;rounded=0;" edge="1" parent="1">
          <mxGeometry width="50" height="50" relative="1" as="geometry">
            <mxPoint x="310" y="250" as="sourcePoint" />
            <mxPoint x="530" y="250" as="targetPoint" />
          </mxGeometry>
        </mxCell>
        <mxCell id="J83IUPI5iL-tQ66jwVP--11" value="Query User&#39;s Tickets" style="edgeLabel;html=1;align=center;verticalAlign=middle;resizable=0;points=[];" vertex="1" connectable="0" parent="J83IUPI5iL-tQ66jwVP--9">
          <mxGeometry x="0.0091" relative="1" as="geometry">
            <mxPoint as="offset" />
          </mxGeometry>
        </mxCell>
        <mxCell id="J83IUPI5iL-tQ66jwVP--12" value="" style="endArrow=classic;html=1;rounded=0;dashed=1;" edge="1" parent="1">
          <mxGeometry width="50" height="50" relative="1" as="geometry">
            <mxPoint x="530" y="270" as="sourcePoint" />
            <mxPoint x="310" y="270" as="targetPoint" />
          </mxGeometry>
        </mxCell>
        <mxCell id="J83IUPI5iL-tQ66jwVP--13" value="Return User&#39;s Tickets" style="edgeLabel;html=1;align=center;verticalAlign=middle;resizable=0;points=[];" vertex="1" connectable="0" parent="J83IUPI5iL-tQ66jwVP--12">
          <mxGeometry x="-0.0394" relative="1" as="geometry">
            <mxPoint as="offset" />
          </mxGeometry>
        </mxCell>
        <mxCell id="J83IUPI5iL-tQ66jwVP--14" value="" style="endArrow=classic;html=1;rounded=0;dashed=1;" edge="1" parent="1">
          <mxGeometry width="50" height="50" relative="1" as="geometry">
            <mxPoint x="290" y="280" as="sourcePoint" />
            <mxPoint x="120" y="280" as="targetPoint" />
          </mxGeometry>
        </mxCell>
        <mxCell id="J83IUPI5iL-tQ66jwVP--15" value="Display User&#39;s Tickets" style="edgeLabel;html=1;align=center;verticalAlign=middle;resizable=0;points=[];" vertex="1" connectable="0" parent="J83IUPI5iL-tQ66jwVP--14">
          <mxGeometry x="0.0824" y="2" relative="1" as="geometry">
            <mxPoint as="offset" />
          </mxGeometry>
        </mxCell>
        <mxCell id="J83IUPI5iL-tQ66jwVP--18" value="" style="rounded=0;whiteSpace=wrap;html=1;" vertex="1" parent="1">
          <mxGeometry x="535" y="240" width="10" height="40" as="geometry" />
        </mxCell>
        <mxCell id="J83IUPI5iL-tQ66jwVP--19" value="" style="rounded=0;whiteSpace=wrap;html=1;" vertex="1" parent="1">
          <mxGeometry x="100" y="230" width="10" height="20" as="geometry" />
        </mxCell>
      </root>
    </mxGraphModel>
  </diagram>
</mxfile>
